<svg version="1.1" id="Layer_1" xmlns="http://www.w3.org/2000/svg" xmlns:xlink="http://www.w3.org/1999/xlink" x="0px" y="0px"
	 width="100%" viewBox="0 0 452 452" enable-background="new 0 0 452 452" xml:space="preserve">
<path fill="#FFFFFF" opacity="1.000000" stroke="none" 
	d="
M218.000000,453.000000 
	C145.353271,453.000000 73.206551,453.000000 1.029912,453.000000 
	C1.029912,302.394928 1.029912,151.789825 1.029912,1.092362 
	C151.563400,1.092362 302.126892,1.092362 452.845184,1.092362 
	C452.845184,151.666550 452.845184,302.333252 452.845184,453.000000 
	C374.789764,453.000000 296.644897,453.000000 218.000000,453.000000 
M237.407364,194.848267 
	C249.318542,194.896408 261.230042,194.989014 273.140259,194.903717 
	C274.040466,194.897263 274.931641,193.625336 275.972382,192.096146 
	C275.296600,176.859451 267.072906,166.009415 254.324722,159.345016 
	C237.723801,150.666534 220.016891,148.434479 201.223572,152.646942 
	C187.565750,155.708328 175.748428,160.633942 167.346725,172.177887 
	C156.778885,186.698074 159.337112,209.868637 174.133835,221.087112 
	C183.697388,228.337921 194.933411,230.880234 206.033325,233.944244 
	C215.266663,236.492996 224.640732,238.530945 233.879562,241.061340 
	C237.737015,242.117844 241.172852,244.887589 240.769653,248.959396 
	C240.446411,252.223770 238.576996,256.229950 236.059631,258.215607 
	C228.268860,264.360840 219.277847,264.852661 209.803635,262.105682 
	C203.087189,260.158295 197.499741,255.456528 197.902222,248.795837 
	C197.953003,247.955597 197.168549,247.064896 196.749634,245.287781 
	C185.032730,245.198669 173.315887,245.091629 161.598831,245.057770 
	C160.750336,245.055313 159.900314,245.585159 158.342468,246.285568 
	C158.805893,249.961441 158.833008,253.757339 159.805771,257.293091 
	C164.923355,275.894379 178.771255,285.044189 196.185822,289.951874 
	C211.863693,294.370117 227.649292,294.220490 243.346924,289.954498 
	C262.629761,284.714172 282.241119,269.713104 280.114502,244.515106 
	C279.365662,235.642044 275.587677,228.360092 269.662720,222.512436 
	C260.959442,213.922745 249.331604,210.851715 237.760010,207.994614 
	C227.549530,205.473587 217.314972,202.973709 207.280090,199.856018 
	C203.315781,198.624374 199.295944,195.956848 199.098175,191.026947 
	C198.916245,186.491714 202.000549,182.951614 205.657440,181.312119 
	C212.877579,178.075134 220.508118,178.225220 228.092743,180.929367 
	C233.413559,182.826401 233.997421,187.898041 236.023239,192.589798 
	C236.343033,193.090714 236.662827,193.591644 237.407364,194.848267 
M287.006897,154.003143 
	C287.006897,154.003143 287.010315,153.933090 286.212067,154.318832 
	C286.142944,168.722992 286.064423,183.127136 286.043823,197.531372 
	C286.043121,198.035522 286.618988,198.540497 287.019318,199.516678 
	C287.019318,199.516678 287.166016,199.974457 287.017578,200.830765 
	C286.677521,203.729843 286.005951,206.634811 286.057220,209.526947 
	C286.238312,219.739319 286.759796,229.945358 286.973755,240.157516 
	C287.161194,249.102859 287.108643,258.053253 287.013519,267.477234 
	C287.013519,267.477234 286.907959,267.964417 286.143707,268.384491 
	C286.095367,289.595520 286.038513,310.806519 286.038879,332.017548 
	C286.038910,332.668304 286.633881,333.319092 287.317078,334.781860 
	C299.564026,334.857758 311.810913,334.948792 324.057953,334.967560 
	C324.711761,334.968536 325.366486,334.359711 326.830109,333.676788 
	C326.883270,316.441467 326.910004,299.205963 327.032684,281.971130 
	C327.044250,280.346954 327.659180,278.727020 328.244934,277.730042 
	C342.995758,293.025970 370.311249,294.977844 388.424194,286.572174 
	C413.885498,274.756348 424.861725,252.639954 426.758026,225.917023 
	C428.150970,206.287140 422.501434,188.394974 410.246246,172.374237 
	C395.109985,152.587296 370.695984,147.341232 350.002014,152.574753 
	C339.318329,155.276657 330.867218,161.676376 322.832458,171.244171 
	C322.832458,164.828156 322.832458,159.914078 322.970490,154.126648 
	C322.699036,153.789093 322.429077,153.157700 322.155853,153.156281 
	C310.745789,153.096588 299.335449,153.085571 287.925293,153.121552 
	C287.594849,153.122589 287.266235,153.695648 287.006897,154.003143 
M129.225006,290.751678 
	C141.541931,290.833527 153.858841,290.930511 166.175842,290.946686 
	C166.714798,290.947388 167.254730,290.207825 167.928329,289.064270 
	C165.124908,280.847961 162.321487,272.631653 159.586243,264.615173 
	C154.681580,264.881561 150.350754,265.318848 148.924988,258.962280 
	C148.956879,236.901184 149.002441,214.840073 148.975266,192.779053 
	C148.974060,191.800751 148.309662,190.823257 147.959473,189.415939 
	C147.959473,189.415939 147.845581,189.001846 148.004333,188.341629 
	C147.955139,187.894241 147.905945,187.446869 147.954742,186.215378 
	C145.621460,175.826736 140.526703,167.278503 131.758133,160.942230 
	C116.739349,150.089508 99.172081,150.704010 82.077011,150.380157 
	C75.002419,150.246109 67.780991,153.053772 60.774872,155.045944 
	C42.241974,160.315689 29.953741,177.360062 29.288624,195.757660 
	C41.031204,195.838394 52.773754,195.930588 64.516464,195.960037 
	C65.012192,195.961288 65.509384,195.379456 66.673019,194.758514 
	C67.455849,192.839706 68.290215,190.940033 69.011398,188.998322 
	C70.847359,184.055313 76.187630,180.075729 81.404289,179.986923 
	C86.230217,179.904785 91.089027,179.634171 95.877914,180.064087 
	C101.145905,180.537033 106.522659,181.851013 108.943550,187.260147 
	C112.493370,195.191742 107.692833,202.247009 98.367813,204.051620 
	C83.681145,206.893799 68.883911,209.399567 54.452927,213.246201 
	C44.704723,215.844620 35.450108,220.420883 29.791225,229.734192 
	C24.853924,237.859924 24.470154,246.700897 24.904911,255.944366 
	C25.581938,270.338806 36.015717,285.887970 50.580471,289.722626 
	C58.689636,291.857605 67.494072,291.427246 75.996788,291.971710 
	C85.352264,292.570770 93.723236,289.524597 101.249825,284.226227 
	C105.145500,281.483856 108.654625,278.192383 112.572273,274.955750 
	C115.206123,282.980896 120.305519,288.359436 129.225006,290.751678 
z"/>
<path fill="#FA7E03" opacity="1.000000" stroke="none" 
	d="
M287.166016,199.974457 
	C287.166016,199.974457 287.019318,199.516678 287.048279,199.017242 
	C287.126953,198.341827 287.176636,198.165863 287.412598,197.831238 
	C287.470337,197.119476 287.341766,196.566376 287.156738,195.675522 
	C287.134155,194.883942 287.168030,194.430115 287.451965,193.651093 
	C287.796844,183.286407 287.947510,173.246872 287.945770,163.207382 
	C287.945374,160.810150 287.436768,158.413025 287.104248,155.671844 
	C287.034546,154.862930 287.022430,154.398010 287.010315,153.933090 
	C287.010315,153.933090 287.006897,154.003143 287.444489,154.012650 
	C297.812317,153.982315 307.742889,153.889633 317.672485,153.952866 
	C319.394623,153.963837 321.112579,154.634201 322.832458,154.999985 
	C322.832458,159.914078 322.832458,164.828156 322.832458,171.244171 
	C330.867218,161.676376 339.318329,155.276657 350.002014,152.574753 
	C370.695984,147.341232 395.109985,152.587296 410.246246,172.374237 
	C422.501434,188.394974 428.150970,206.287140 426.758026,225.917023 
	C424.861725,252.639954 413.885498,274.756348 388.424194,286.572174 
	C370.311249,294.977844 342.995758,293.025970 328.109314,277.144348 
	C327.279602,276.390076 326.585541,276.221527 325.615906,276.354919 
	C325.228088,278.472321 325.021698,280.287628 325.018311,282.103302 
	C324.989655,297.422485 324.865143,312.743683 325.085571,328.059692 
	C325.143280,332.069794 323.897736,333.179993 319.987518,333.089569 
	C309.336273,332.843323 298.675720,332.999908 288.011322,332.528534 
	C288.000519,312.804840 288.017548,293.549377 287.959778,274.294128 
	C287.954498,272.535553 287.469757,270.778442 287.135559,268.755768 
	C287.011688,268.315399 286.959839,268.139923 286.907959,267.964417 
	C286.907959,267.964417 287.013519,267.477234 287.347839,266.916199 
	C287.775421,244.817322 287.875031,223.279541 287.928223,201.741638 
	C287.929688,201.153214 287.431305,200.563553 287.166016,199.974457 
M328.871368,201.505203 
	C325.435913,212.655548 326.848572,223.991364 327.670563,235.284851 
	C328.135651,241.674805 330.553772,247.514908 335.325714,251.707077 
	C349.024658,263.741699 368.971680,260.199890 379.050262,246.018906 
	C385.435730,237.034241 386.529602,227.088562 386.045746,216.591583 
	C385.585693,206.611023 382.701324,197.743088 375.241058,190.662567 
	C360.220245,176.406250 336.913177,180.594238 328.871368,201.505203 
z"/>
<path fill="#F97D04" opacity="1.000000" stroke="none" 
	d="
M147.845581,189.001846 
	C147.845581,189.001846 147.959473,189.415939 147.889526,189.936371 
	C147.774078,190.660370 147.728592,190.863922 147.458771,191.404434 
	C147.158157,213.282394 147.069824,234.823380 147.048508,256.364410 
	C147.047623,257.253174 147.675171,258.142548 148.127502,259.183044 
	C148.369080,259.566925 148.546967,259.745728 148.778748,259.870850 
	C150.350754,265.318848 154.681580,264.881561 159.586243,264.615173 
	C162.321487,272.631653 165.124908,280.847961 167.408829,289.474030 
	C154.197723,289.903137 141.506134,289.922455 128.814529,289.941803 
	C120.305519,288.359436 115.206123,282.980896 112.572273,274.955750 
	C108.654625,278.192383 105.145500,281.483856 101.249825,284.226227 
	C93.723236,289.524597 85.352264,292.570770 75.996788,291.971710 
	C67.494072,291.427246 58.689636,291.857605 50.580471,289.722626 
	C36.015717,285.887970 25.581938,270.338806 24.904911,255.944366 
	C24.470154,246.700897 24.853924,237.859924 29.791225,229.734192 
	C35.450108,220.420883 44.704723,215.844620 54.452927,213.246201 
	C68.883911,209.399567 83.681145,206.893799 98.367813,204.051620 
	C107.692833,202.247009 112.493370,195.191742 108.943550,187.260147 
	C106.522659,181.851013 101.145905,180.537033 95.877914,180.064087 
	C91.089027,179.634171 86.230217,179.904785 81.404289,179.986923 
	C76.187630,180.075729 70.847359,184.055313 69.011398,188.998322 
	C68.290215,190.940033 67.455849,192.839706 65.872406,194.868256 
	C53.026794,194.963150 40.981808,194.948303 28.936817,194.933441 
	C29.953741,177.360062 42.241974,160.315689 60.774872,155.045944 
	C67.780991,153.053772 75.002419,150.246109 82.077011,150.380157 
	C99.172081,150.704010 116.739349,150.089508 131.758133,160.942230 
	C140.526703,167.278503 145.621460,175.826736 147.704483,186.762985 
	C147.584671,187.874344 147.715118,188.438095 147.845581,189.001846 
M66.452316,239.978760 
	C59.264912,250.257126 62.961338,260.065674 74.771484,263.131866 
	C80.170906,264.533691 84.950127,263.147339 90.076920,262.135895 
	C100.300453,260.118988 108.614716,252.650330 109.879662,242.627533 
	C110.515831,237.586884 109.990654,232.399658 109.990654,227.183151 
	C108.961563,227.091934 108.288902,226.873260 107.692360,227.003433 
	C99.443115,228.803436 91.160927,230.479553 82.977875,232.546539 
	C77.311455,233.977859 71.024483,234.185440 66.452316,239.978760 
z"/>
<path fill="#F97E04" opacity="1.000000" stroke="none" 
	d="
M236.162827,191.945526 
	C233.997421,187.898041 233.413559,182.826401 228.092743,180.929367 
	C220.508118,178.225220 212.877579,178.075134 205.657440,181.312119 
	C202.000549,182.951614 198.916245,186.491714 199.098175,191.026947 
	C199.295944,195.956848 203.315781,198.624374 207.280090,199.856018 
	C217.314972,202.973709 227.549530,205.473587 237.760010,207.994614 
	C249.331604,210.851715 260.959442,213.922745 269.662720,222.512436 
	C275.587677,228.360092 279.365662,235.642044 280.114502,244.515106 
	C282.241119,269.713104 262.629761,284.714172 243.346924,289.954498 
	C227.649292,294.220490 211.863693,294.370117 196.185822,289.951874 
	C178.771255,285.044189 164.923355,275.894379 159.805771,257.293091 
	C158.833008,253.757339 158.805893,249.961441 159.161102,246.106201 
	C172.243515,246.017075 184.507294,246.107315 196.771088,246.197571 
	C197.168549,247.064896 197.953003,247.955597 197.902222,248.795837 
	C197.499741,255.456528 203.087189,260.158295 209.803635,262.105682 
	C219.277847,264.852661 228.268860,264.360840 236.059631,258.215607 
	C238.576996,256.229950 240.446411,252.223770 240.769653,248.959396 
	C241.172852,244.887589 237.737015,242.117844 233.879562,241.061340 
	C224.640732,238.530945 215.266663,236.492996 206.033325,233.944244 
	C194.933411,230.880234 183.697388,228.337921 174.133835,221.087112 
	C159.337112,209.868637 156.778885,186.698074 167.346725,172.177887 
	C175.748428,160.633942 187.565750,155.708328 201.223572,152.646942 
	C220.016891,148.434479 237.723801,150.666534 254.324722,159.345016 
	C267.072906,166.009415 275.296600,176.859451 275.709717,192.538086 
	C275.447052,192.980042 275.069611,193.038498 274.596680,193.029205 
	C261.470123,192.661774 248.816467,192.303650 236.162827,191.945526 
z"/>
<path fill="#DD7710" opacity="1.000000" stroke="none" 
	d="
M287.091797,200.402618 
	C287.431305,200.563553 287.929688,201.153214 287.928223,201.741638 
	C287.875031,223.279541 287.775421,244.817322 287.422119,266.678284 
	C287.108643,258.053253 287.161194,249.102859 286.973755,240.157516 
	C286.759796,229.945358 286.238312,219.739319 286.057220,209.526947 
	C286.005951,206.634811 286.677521,203.729843 287.091797,200.402618 
z"/>
<path fill="#562305" opacity="1.000000" stroke="none" 
	d="
M147.683121,191.067459 
	C147.728592,190.863922 147.774078,190.660370 147.886871,190.151108 
	C148.309662,190.823257 148.974060,191.800751 148.975266,192.779053 
	C149.002441,214.840073 148.956879,236.901184 148.851868,259.416565 
	C148.546967,259.745728 148.369080,259.566925 148.138870,258.710754 
	C148.013702,254.942322 147.992310,251.797699 147.976196,248.653030 
	C147.877838,229.457840 147.780670,210.262650 147.683121,191.067459 
z"/>
<path fill="#261400" opacity="1.000000" stroke="none" 
	d="
M286.525818,268.174438 
	C286.959839,268.139923 287.011688,268.315399 287.053192,269.216492 
	C287.023376,291.285675 287.003906,312.629303 286.981079,333.981140 
	C286.977783,333.989380 286.951447,333.969849 286.951447,333.969849 
	C286.633881,333.319092 286.038910,332.668304 286.038879,332.017548 
	C286.038513,310.806519 286.095367,289.595520 286.525818,268.174438 
z"/>
<path fill="#562305" opacity="1.000000" stroke="none" 
	d="
M325.891479,276.052948 
	C326.585541,276.221527 327.279602,276.390076 327.983826,276.831909 
	C327.659180,278.727020 327.044250,280.346954 327.032684,281.971130 
	C326.910004,299.205963 326.883270,316.441467 326.409119,333.849182 
	C325.988098,334.021545 325.979065,333.987366 325.951202,333.520203 
	C325.912720,314.053009 325.902100,295.052979 325.891479,276.052948 
z"/>
<path fill="#261400" opacity="1.000000" stroke="none" 
	d="
M287.226288,197.989899 
	C287.176636,198.165863 287.126953,198.341827 287.001709,198.781433 
	C286.618988,198.540497 286.043121,198.035522 286.043823,197.531372 
	C286.064423,183.127136 286.142944,168.722992 286.611206,154.125961 
	C287.022430,154.398010 287.034546,154.862930 287.026794,156.133636 
	C287.071930,169.285049 287.136902,181.630661 287.201904,193.976273 
	C287.168030,194.430115 287.134155,194.883942 287.080383,196.002350 
	C287.115784,197.107910 287.171051,197.548904 287.226288,197.989899 
z"/>
<path fill="#F3821C" opacity="1.000000" stroke="none" 
	d="
M236.093033,192.267670 
	C248.816467,192.303650 261.470123,192.661774 274.343811,193.380249 
	C262.036804,193.857925 249.509705,193.975235 236.982620,194.092560 
	C236.662827,193.591644 236.343033,193.090714 236.093033,192.267670 
z"/>
<path fill="#562305" opacity="1.000000" stroke="none" 
	d="
M237.194992,194.470413 
	C249.509705,193.975235 262.036804,193.857925 274.816742,193.389557 
	C275.069611,193.038498 275.447052,192.980042 275.637024,192.960846 
	C274.931641,193.625336 274.040466,194.897263 273.140259,194.903717 
	C261.230042,194.989014 249.318542,194.896408 237.194992,194.470413 
z"/>
<path fill="#3E1D03" opacity="1.000000" stroke="none" 
	d="
M129.019775,290.346741 
	C141.506134,289.922455 154.197723,289.903137 167.341766,289.848450 
	C167.254730,290.207825 166.714798,290.947388 166.175842,290.946686 
	C153.858841,290.930511 141.541931,290.833527 129.019775,290.346741 
z"/>
<path fill="#4A2203" opacity="1.000000" stroke="none" 
	d="
M326.004425,334.028137 
	C325.366486,334.359711 324.711761,334.968536 324.057953,334.967560 
	C311.810913,334.948792 299.564026,334.857758 287.134277,334.375854 
	C286.951447,333.969849 286.977783,333.989380 287.242981,333.956726 
	C287.680878,333.893463 287.853546,333.862854 288.487823,333.907043 
	C301.292633,333.983704 313.635834,333.985535 325.979065,333.987366 
	C325.979065,333.987366 325.988098,334.021545 326.004425,334.028137 
z"/>
<path fill="#3E1D03" opacity="1.000000" stroke="none" 
	d="
M196.760361,245.742676 
	C184.507294,246.107315 172.243515,246.017075 159.515350,245.897186 
	C159.900314,245.585159 160.750336,245.055313 161.598831,245.057770 
	C173.315887,245.091629 185.032730,245.198669 196.760361,245.742676 
z"/>
<path fill="#3E1D03" opacity="1.000000" stroke="none" 
	d="
M29.112720,195.345551 
	C40.981808,194.948303 53.026794,194.963150 65.538834,195.023621 
	C65.509384,195.379456 65.012192,195.961288 64.516464,195.960037 
	C52.773754,195.930588 41.031204,195.838394 29.112720,195.345551 
z"/>
<path fill="#562305" opacity="1.000000" stroke="none" 
	d="
M322.901489,154.563324 
	C321.112579,154.634201 319.394623,153.963837 317.672485,153.952866 
	C307.742889,153.889633 297.812317,153.982315 287.409424,154.012085 
	C287.266235,153.695648 287.594849,153.122589 287.925293,153.121552 
	C299.335449,153.085571 310.745789,153.096588 322.155853,153.156281 
	C322.429077,153.157700 322.699036,153.789093 322.901489,154.563324 
z"/>
<path fill="#F3821C" opacity="1.000000" stroke="none" 
	d="
M147.924957,188.671738 
	C147.715118,188.438095 147.584671,187.874344 147.655487,187.155029 
	C147.905945,187.446869 147.955139,187.894241 147.924957,188.671738 
z"/>
<path fill="#FFFFFF" opacity="1.000000" stroke="none" 
	d="
M328.927551,201.103088 
	C336.913177,180.594238 360.220245,176.406250 375.241058,190.662567 
	C382.701324,197.743088 385.585693,206.611023 386.045746,216.591583 
	C386.529602,227.088562 385.435730,237.034241 379.050262,246.018906 
	C368.971680,260.199890 349.024658,263.741699 335.325714,251.707077 
	C330.553772,247.514908 328.135651,241.674805 327.670563,235.284851 
	C326.848572,223.991364 325.435913,212.655548 328.927551,201.103088 
z"/>
<path fill="#F3821C" opacity="1.000000" stroke="none" 
	d="
M325.951202,333.520203 
	C313.635834,333.985535 301.292633,333.983704 288.482544,333.698303 
	C288.015656,333.414703 288.018860,332.996857 288.018860,332.996826 
	C298.675720,332.999908 309.336273,332.843323 319.987518,333.089569 
	C323.897736,333.179993 325.143280,332.069794 325.085571,328.059692 
	C324.865143,312.743683 324.989655,297.422485 325.018311,282.103302 
	C325.021698,280.287628 325.228088,278.472321 325.615906,276.354919 
	C325.902100,295.052979 325.912720,314.053009 325.951202,333.520203 
z"/>
<path fill="#DD7710" opacity="1.000000" stroke="none" 
	d="
M288.011322,332.528564 
	C288.018860,332.996857 288.015656,333.414703 288.020935,333.623474 
	C287.853546,333.862854 287.680878,333.893463 287.246307,333.948486 
	C287.003906,312.629303 287.023376,291.285675 287.125244,269.481323 
	C287.469757,270.778442 287.954498,272.535553 287.959778,274.294128 
	C288.017548,293.549377 288.000519,312.804840 288.011322,332.528564 
z"/>
<path fill="#DD7710" opacity="1.000000" stroke="none" 
	d="
M287.451965,193.651093 
	C287.136902,181.630661 287.071930,169.285049 287.084412,156.477631 
	C287.436768,158.413025 287.945374,160.810150 287.945770,163.207382 
	C287.947510,173.246872 287.796844,183.286407 287.451965,193.651093 
z"/>
<path fill="#DD7710" opacity="1.000000" stroke="none" 
	d="
M287.412598,197.831238 
	C287.171051,197.548904 287.115784,197.107910 287.136871,196.340088 
	C287.341766,196.566376 287.470337,197.119476 287.412598,197.831238 
z"/>
<path fill="#FFFFFF" opacity="1.000000" stroke="none" 
	d="
M66.677856,239.667267 
	C71.024483,234.185440 77.311455,233.977859 82.977875,232.546539 
	C91.160927,230.479553 99.443115,228.803436 107.692360,227.003433 
	C108.288902,226.873260 108.961563,227.091934 109.990654,227.183151 
	C109.990654,232.399658 110.515831,237.586884 109.879662,242.627533 
	C108.614716,252.650330 100.300453,260.118988 90.076920,262.135895 
	C84.950127,263.147339 80.170906,264.533691 74.771484,263.131866 
	C62.961338,260.065674 59.264912,250.257126 66.677856,239.667267 
z"/>
<path fill="#F3821C" opacity="1.000000" stroke="none" 
	d="
M147.458771,191.404434 
	C147.780670,210.262650 147.877838,229.457840 147.976196,248.653030 
	C147.992310,251.797699 148.013702,254.942322 148.021301,258.559296 
	C147.675171,258.142548 147.047623,257.253174 147.048508,256.364410 
	C147.069824,234.823380 147.158157,213.282394 147.458771,191.404434 
z"/>
</svg>